<svg width="350" height="350" viewBox="0 0 350 350" fill="none" xmlns="http://www.w3.org/2000/svg">
<circle cx="175" cy="175" r="175" fill="#FFAB26"/>
<path d="M142.201 55.384C137.035 56.1287 131.403 60.3178 129.262 64.9723C127.54 68.6493 127.214 71.4886 127.214 83.3575V94.4352L106.408 94.5749L85.5561 94.7145L81.8325 96.0178C68.2879 100.626 58.6996 111.657 56.512 125.248C56.1862 127.203 56 147.496 56 183.615C56 230.44 56.1396 239.516 56.6982 242.262C58.8858 252.735 67.1708 261.578 77.8761 264.929L81.367 266H175.155H268.943L272.434 264.929C280.579 262.369 287.468 256.644 291.006 249.477C294.45 242.448 294.31 245.52 294.31 183.615C294.31 147.496 294.124 127.203 293.798 125.248C291.611 111.657 282.022 100.626 268.478 96.0178L264.754 94.7145L243.949 94.5749L223.096 94.4352V83.3575C223.096 77.2601 222.864 71.1627 222.631 69.8129C221.188 62.1796 215.23 56.4545 207.69 55.384C204.153 54.872 145.739 54.872 142.201 55.384ZM207.83 70.1853C208.9 71.2093 208.9 71.3955 208.9 82.7524V94.2491H175.155H141.41V82.799C141.41 72.2798 141.503 71.2093 142.294 70.3715C142.76 69.8129 143.598 69.3009 144.156 69.2079C144.668 69.0682 159.004 69.0217 175.946 69.0682L206.759 69.1148L207.83 70.1853ZM264.009 109.376C270.107 111.191 275.273 115.66 278.02 121.524C279.974 125.76 280.347 128.367 280.347 138.234C280.347 148.102 279.881 150.475 277.275 154.385C275.599 156.805 273.505 158.528 270.572 159.831C269.176 160.483 202.896 176.866 201.732 176.866C201.546 176.866 201.22 175.982 201.081 174.958C200.708 172.026 198.195 167.371 195.961 165.463C191.492 161.553 188.979 161.041 175.155 161.041C161.331 161.041 158.818 161.553 154.35 165.463C152.115 167.371 149.602 172.026 149.23 174.958C149.09 175.982 148.764 176.866 148.578 176.866C147.414 176.866 81.1343 160.483 79.7379 159.831C75.2231 157.829 72.058 154.152 70.7082 149.451C69.8239 146.473 69.6377 131.113 70.4289 127.017C71.9649 119.011 77.9692 112.169 85.7888 109.516L88.8142 108.492H174.876C259.308 108.445 260.984 108.445 264.009 109.376ZM73.082 172.212C75.1765 173.282 85.1372 175.889 112.133 182.498C132.101 187.386 148.531 191.481 148.718 191.668C148.857 191.854 149.09 194.181 149.183 196.881C149.323 200.93 149.555 202.14 150.486 204.049C152.302 207.633 154.862 210.193 158.306 211.868L161.424 213.404H175.155H188.886L192.004 211.868C195.449 210.193 198.009 207.633 199.824 204.049C200.755 202.14 200.988 200.93 201.127 196.881C201.22 194.181 201.453 191.854 201.593 191.668C201.779 191.481 218.209 187.386 238.177 182.498C265.173 175.889 275.134 173.282 277.228 172.212C278.764 171.467 280.114 170.816 280.207 170.816C280.254 170.816 280.347 185.663 280.347 203.862C280.347 226.483 280.161 237.654 279.835 239.33C279.09 242.681 277.973 244.822 275.553 247.196C272.946 249.802 269.921 251.292 266.244 251.85C262.427 252.362 87.8833 252.362 84.0666 251.85C80.3896 251.292 77.3641 249.802 74.7576 247.196C72.3373 244.822 71.2202 242.681 70.4755 239.33C70.1497 237.654 69.9635 226.483 69.9635 203.862C69.9635 185.663 70.0566 170.816 70.1031 170.816C70.1962 170.816 71.546 171.467 73.082 172.212ZM186.419 175.796C187.164 176.494 187.257 177.471 187.257 187.386C187.257 196.601 187.164 198.324 186.512 198.929C185.442 200.046 164.869 200.046 163.798 198.929C163.147 198.324 163.053 196.601 163.053 187.479C163.053 178.123 163.147 176.587 163.845 175.842C164.543 175.098 165.52 175.005 175.062 175.005C184.185 175.005 185.674 175.098 186.419 175.796Z" fill="white"/>
</svg>
