<svg width="350" height="350" viewBox="0 0 350 350" fill="none" xmlns="http://www.w3.org/2000/svg">
<circle cx="175" cy="175" r="175" fill="#FFAB26"/>
<path d="M145.411 43.7631C141.219 44.7466 135.836 47.5933 132.575 50.5436C131.074 51.8894 128.382 55.2537 126.623 57.9452C121.498 65.8126 119.273 67.4171 110.318 69.8498C107.058 70.7297 103.227 72.0755 101.778 72.8519C97.7927 74.974 92.1509 80.8746 90.0288 85.1188C87.3373 90.45 86.8197 93.2968 86.768 102.976C86.768 111.05 86.6645 111.671 85.4222 114.363C84.6976 115.916 82.6272 118.866 80.9192 120.936C75.1221 127.82 73 133.1 73 140.812C73 148.576 75.3292 154.942 80.2463 160.48C86.0433 167.002 87.2856 170.625 86.8715 179.062C86.3021 188.948 87.9067 194.952 92.6685 201.318C96.9128 206.96 102.244 210.325 109.904 212.24C112.285 212.809 114.407 213.482 114.614 213.741C114.873 213.948 106.799 227.975 96.7058 244.848C76.002 279.579 77.1925 277.508 77.1925 278.957C77.1925 280.562 79.4699 282.581 81.178 282.529C81.9544 282.529 89.4077 280.562 97.6374 278.233C105.919 275.852 112.699 273.989 112.803 274.04C112.855 274.092 114.407 281.08 116.271 289.516C118.134 297.953 119.842 305.355 120.153 305.872C121.447 308.253 124.138 308.564 126.312 306.545C127.14 305.717 137.285 289.206 148.879 269.796L169.945 234.496L172.223 234.134C173.465 233.979 175.535 233.979 176.777 234.134L179.055 234.496L200.69 270.676C223.516 308.874 223.309 308.512 226.518 307.736C227.191 307.58 228.123 306.907 228.537 306.235C228.951 305.613 230.814 298.108 232.677 289.62C234.541 281.08 236.145 274.092 236.197 274.04C236.301 273.989 243.236 275.852 251.621 278.233C260.006 280.614 267.408 282.581 267.977 282.581C269.582 282.581 271.238 281.028 271.6 279.216C271.859 277.87 269.427 273.574 252.915 245.883C242.46 228.44 234.127 213.948 234.386 213.741C234.593 213.482 236.715 212.809 239.096 212.24C249.758 209.6 257.263 202.923 260.783 192.985C262.025 189.414 262.129 188.482 262.18 180.097C262.232 171.091 262.232 171.039 263.837 167.675C264.716 165.812 266.735 162.81 268.34 160.946C273.826 154.683 275.948 149.042 276 140.915C276 133.203 273.774 127.613 267.77 120.574C266.217 118.711 264.302 115.916 263.578 114.363C262.284 111.671 262.232 111.05 262.232 102.976C262.18 93.2968 261.714 90.5536 258.971 85.1188C256.849 80.8746 251.207 74.974 247.222 72.8519C245.773 72.0755 241.942 70.7297 238.682 69.8498C229.727 67.4171 227.502 65.8126 222.377 57.9452C220.566 55.1502 217.874 51.8376 216.218 50.3366C210.473 45.2642 202.968 42.6244 195.463 43.0903C191.529 43.2973 190.338 43.6596 180.97 47.0757C176.415 48.732 170.463 48.3697 165.39 46.1441C158.351 43.0385 151.674 42.2104 145.411 43.7631ZM158.713 52.4069C159.852 52.821 162.44 53.8044 164.407 54.5808C167.098 55.616 169.272 56.0819 172.947 56.2371C178.537 56.5477 182.16 55.8231 188.061 53.2351C195.255 50.0778 203.226 50.8542 209.127 55.2537C211.974 57.4276 213.009 58.6181 217.098 64.9327C221.29 71.3509 227.346 75.5951 234.644 77.3549C240.855 78.856 241.684 79.1665 244.841 81.2886C248.361 83.6178 251 86.9304 252.708 91.0711C253.795 93.6591 253.899 94.6425 253.795 101.941C253.64 113.742 255.296 118.866 261.559 126.009C266.683 131.909 268.443 137.24 267.563 144.073C266.994 148.317 265.286 151.733 261.507 156.236C255.089 163.896 253.64 168.451 253.795 180.097C253.847 187.343 253.743 188.43 252.708 191.122C250.379 197.074 245.151 201.888 239.199 203.596C237.646 204.01 234.696 204.838 232.729 205.407C225.897 207.374 219.738 212.343 215.804 219.124C213.061 223.834 209.903 226.888 205.607 228.958C202.502 230.407 201.725 230.562 197.015 230.562C192.202 230.562 191.529 230.407 186.922 228.544C177.761 224.817 171.239 224.817 162.078 228.544C157.471 230.407 156.798 230.562 151.933 230.562C147.016 230.562 146.602 230.459 142.823 228.647C138.476 226.473 136.25 224.3 133.403 219.486C132.368 217.726 130.66 215.19 129.573 213.896C126.778 210.532 120.774 206.701 116.374 205.459C114.304 204.838 111.354 204.01 109.801 203.596C103.849 201.888 98.6209 197.074 96.2917 191.122C95.2565 188.43 95.153 187.343 95.2047 180.097C95.36 168.451 93.9108 163.896 87.4926 156.236C82.2132 149.973 80.5051 144.797 81.4368 138.069C82.0061 133.721 83.7142 130.305 87.4408 126.009C93.7037 118.866 95.36 113.742 95.2047 101.941C95.1012 94.8496 95.2565 93.6074 96.1882 91.2264C97.7927 87.1892 100.691 83.6178 104.159 81.2886C107.316 79.1665 108.145 78.856 114.356 77.3549C121.757 75.5951 127.658 71.4026 131.902 64.9327C136.198 58.3593 136.819 57.5829 139.511 55.5125C143.341 52.5622 147.999 51.113 152.761 51.3718C154.883 51.527 157.575 51.9411 158.713 52.4069ZM126.881 224.662C127.968 226.525 130.453 229.476 132.316 231.235C138.268 236.825 144.79 239.31 152.865 238.999C155.349 238.896 157.419 238.947 157.419 239.103C157.419 239.517 125.639 292.363 125.484 292.208C125.38 292.156 124.19 286.721 122.741 280.2C121.291 273.678 119.894 267.726 119.583 266.949C119.273 266.225 118.341 265.293 117.565 264.982C116.271 264.413 114.563 264.775 103.383 267.933C96.3952 269.951 90.6499 271.452 90.6499 271.349C90.6499 271.142 118.962 223.678 121.602 219.486L122.378 218.192L123.621 219.745C124.293 220.573 125.743 222.799 126.881 224.662ZM242.512 244.745C251.259 259.237 258.35 271.194 258.35 271.349C258.35 271.452 252.605 269.951 245.617 267.933C234.437 264.775 232.729 264.413 231.435 264.982C230.659 265.293 229.727 266.225 229.417 266.949C229.106 267.726 227.709 273.678 226.259 280.2C224.862 286.721 223.62 292.104 223.516 292.208C223.361 292.363 191.581 239.517 191.581 239.103C191.581 238.947 193.547 238.896 195.98 238.999C201.467 239.206 204.883 238.533 209.696 236.256C214.199 234.082 219.324 229.32 221.963 224.869C223.93 221.608 226.156 218.399 226.518 218.399C226.622 218.399 233.816 230.252 242.512 244.745Z" fill="white"/>
<path d="M164.666 80.9782C151.726 83.1521 141.012 88.7421 131.488 98.2658C122.637 107.117 117.358 116.899 114.666 129.477C113.424 135.222 113.424 147.178 114.666 152.82C120.049 177.561 138.269 195.78 162.647 200.801C170.204 202.405 182.264 202.095 189.614 200.128C209.231 194.952 225.276 180.253 231.849 161.464C234.282 154.425 235.214 149.042 235.265 141.537C235.317 124.508 229.468 110.222 217.512 98.2658C208.092 88.7938 197.015 83.0485 184.334 80.9782C178.537 80.0465 170.101 80.0465 164.666 80.9782ZM183.351 89.2597C206.643 93.2969 223.982 111.775 226.777 135.481C229.779 160.48 213.785 184.186 188.734 191.847C184.386 193.141 183.454 193.244 174.5 193.244C165.546 193.244 164.614 193.141 160.266 191.847C141.685 186.153 128.124 172.178 123.517 154.062C117.565 130.357 128.486 105.823 150.018 94.5909C160.525 89.1044 172.067 87.2928 183.351 89.2597Z" fill="white"/>
<path d="M178.796 136.205L164.148 150.853L159.852 146.557C155.556 142.313 154.417 141.692 151.985 142.623C150.794 143.089 149.552 145.781 149.914 147.126C150.121 147.748 152.968 151.008 156.281 154.321C161.715 159.807 162.492 160.429 164.148 160.429C165.856 160.429 167.047 159.342 182.367 143.969C191.374 134.963 198.879 127.044 199.086 126.423C199.707 124.197 197.533 121.661 194.945 121.609C193.651 121.609 191.425 123.576 178.796 136.205Z" fill="white"/>
</svg>
