<svg width="350" height="350" viewBox="0 0 350 350" fill="none" xmlns="http://www.w3.org/2000/svg">
<circle cx="175" cy="175" r="175" fill="#FFAB26"/>
<path d="M171.658 27.518C169.808 28.2698 57.4347 95.1268 56.1624 96.2835C53.3285 98.7704 53.2128 99.5801 53.0393 118.319C52.808 138.156 53.6176 158.167 54.9478 168.056C61.0783 212.878 80.2795 252.322 110.701 282.569C128.224 299.92 147.599 312.875 169.056 321.376C174.724 323.632 176.227 323.516 185.076 319.641C205.203 310.908 223.363 298.474 239.441 282.338C262.401 259.32 279.115 230.981 288.311 199.461C295.078 176.385 297.276 155.217 296.871 117.74C296.697 99.6379 296.581 98.7704 293.748 96.2257C292.36 95.0111 181.028 28.7903 178.599 27.7493C176.517 26.824 173.567 26.7661 171.658 27.518ZM221.859 137.578C226.081 140.411 227.758 145.964 225.618 150.012C225.156 150.88 210.119 166.206 192.19 184.077C156.332 219.819 157.778 218.662 152.284 217.216C150.144 216.638 147.946 214.729 137.536 204.319C130.769 197.61 124.812 191.248 124.292 190.149C123.019 187.431 123.424 182.689 125.159 180.26C127.646 176.847 132.62 175.286 136.611 176.732C137.478 177.079 141.931 181.069 146.5 185.58L154.713 193.793L182.647 165.917C197.973 150.59 211.333 137.635 212.258 137.173C214.919 135.785 219.488 135.958 221.859 137.578Z" fill="white"/>
</svg>
