<svg width="350" height="350" viewBox="0 0 350 350" fill="none" xmlns="http://www.w3.org/2000/svg">
<circle cx="175" cy="175" r="175" fill="#FFAB26"/>
<path d="M168.431 37.1687C157.873 38.5392 147.771 42.2956 138.99 48.1839C134.117 51.4326 125.132 60.4173 121.883 65.2904C117.213 72.2447 114.015 79.6051 111.985 88.133C111.02 92.0416 110.919 94.4782 110.716 113.361L110.462 134.326H105.03C101.782 134.326 98.3807 134.63 96.604 135.087C87.8731 137.371 81.1218 144.174 78.8376 152.955C77.7208 157.321 77.7208 273.767 78.8376 278.133C81.1218 286.914 87.8731 293.716 96.604 296.001C99.2436 296.661 108.99 296.762 175.538 296.762C259.091 296.762 254.167 296.965 260.36 293.666C266.198 290.518 271.223 283.666 272.492 277.016C272.797 275.239 273 253.209 273 215.087C273 150.62 273.101 153.26 270.157 147.422C268.33 143.818 263.913 139.351 260.36 137.422C256.096 135.138 252.289 134.326 246.045 134.326H240.614L240.36 113.361C240.157 94.4782 240.055 92.0416 239.091 88.133C235.944 75.0874 230.462 65.2904 221.274 56.1026C211.883 46.7118 201.985 41.2296 189.243 38.3362C185.03 37.3717 172.441 36.6611 168.431 37.1687ZM184.167 59.4021C188.939 60.4173 195.081 62.9047 198.837 65.392C208.685 71.8386 216.045 82.7523 218.127 93.9706C218.482 95.7472 218.685 104.377 218.685 115.646V134.326H175.538H132.391V115.392C132.391 94.7827 132.594 93.0569 135.386 85.8488C140.462 72.6508 152.441 62.5493 166.655 59.4529C170.716 58.5392 180.056 58.5392 184.167 59.4021ZM182.949 179.047C190.462 181.889 195.589 188.184 196.908 196.204C198.076 203.564 194.776 211.635 188.736 216.255L186.248 218.133L186.096 232.295L185.944 246.407L184.421 248.64C179.497 255.645 168.888 254.63 165.639 246.914C165.03 245.341 164.878 242.549 164.878 231.584V218.184L162.289 216.255C156.299 211.686 153 203.564 154.167 196.305C155.995 184.833 166.045 176.813 177.315 177.828C178.99 177.981 181.528 178.539 182.949 179.047Z" fill="white"/>
</svg>
