<?xml version="1.0" encoding="UTF-8" standalone="no" ?>
<!DOCTYPE svg PUBLIC "-//W3C//DTD SVG 1.1//EN" "http://www.w3.org/Graphics/SVG/1.1/DTD/svg11.dtd">
<svg xmlns="http://www.w3.org/2000/svg" xmlns:xlink="http://www.w3.org/1999/xlink" version="1.1" width="400" height="400" viewBox="0 0 400 400" xml:space="preserve">
<desc>Created with Fabric.js 3.6.2</desc>
<defs>
</defs>
<g transform="matrix(0.61 0 0 0.61 200 200)" id="B_-_178_x2C__Organization_x2C__Business_x2C__human_x2C__leadership_x2C__management"  >
<path style="stroke: none; stroke-width: 1; stroke-dasharray: none; stroke-linecap: butt; stroke-dashoffset: 0; stroke-linejoin: miter; stroke-miterlimit: 4; fill: rgb(255,255,255); fill-rule: evenodd; opacity: 1;"  transform=" translate(-256, -256)" d="M 232.58 156.347 l -1.063 20.327 h 16.331 h 0.076 h 5.857 c -0.18 -0.11 -0.293 -0.22 -0.438 -0.329 L 232.58 156.347 z M 261.768 182.46 h -10.913 v 13.588 h 10.913 V 182.46 z M 267.555 198.684 l 6.299 32.667 h 35.231 v -35.817 c 0 -1.648 1.319 -3.003 3.003 -3.003 c 1.648 0 3.002 1.355 3.002 3.003 v 36.038 h 22.452 v -56.986 l -51.823 -20.363 l 1.318 25.197 c 0.072 1.575 -1.17 2.967 -2.746 3.04 h -16.736 V 198.684 z M 237.194 231.352 l 7.873 -32.705 V 182.46 h -16.591 c -1.572 0 -2.891 -1.282 -2.891 -2.894 l 1.319 -25.344 l -51.824 20.363 v 56.986 h 22.449 v -36.038 c 0 -1.648 1.354 -3.003 3.042 -3.003 c 1.647 0 3.003 1.355 3.003 3.003 v 35.817 H 237.194 z M 267.956 231.352 l -5.677 -29.518 h -12.085 l -7.067 29.518 H 267.956 z M 261.254 64.714 c -6.959 4.396 -16.187 7.068 -26.148 7.068 c -3.295 0 -6.519 -0.292 -9.558 -0.806 c -2.052 -0.365 -4.028 -0.841 -5.936 -1.428 c -0.767 3.04 -1.207 6.262 -1.207 9.596 c 0 11.829 4.614 28.896 13.257 41.494 c 6.374 9.229 14.944 15.931 25.418 15.931 c 10.475 0 19.042 -6.702 25.416 -15.931 c 8.643 -12.599 13.256 -29.665 13.256 -41.494 c 0 -2.381 -0.217 -4.688 -0.584 -6.959 c -0.623 0.073 -1.207 0.147 -1.793 0.221 c -1.539 0.109 -3.114 0.182 -4.653 0.182 c -5.64 0 -10.988 -0.842 -15.821 -2.343 C 268.578 68.889 264.697 66.986 261.254 64.714 z M 275.172 44.938 c -0.734 6.007 -3.881 11.464 -8.755 15.896 c 2.493 1.464 5.276 2.709 8.313 3.625 c 4.25 1.319 8.975 2.088 13.991 2.088 c 1.391 0 2.786 -0.074 4.177 -0.183 l 0.658 -0.073 c -1.904 -5.494 -5.092 -10.438 -9.121 -14.504 C 281.69 49.077 278.615 46.77 275.172 44.938 z M 221.555 63.836 c 1.612 0.476 3.295 0.878 5.052 1.172 c 2.674 0.476 5.532 0.732 8.499 0.732 c 9.633 0 18.311 -2.746 24.573 -7.215 c 5.896 -4.175 9.524 -9.889 9.633 -16.078 c -3.881 -1.282 -7.985 -1.978 -12.231 -1.978 c -10.694 0 -20.364 4.321 -27.358 11.316 l -0.185 0.146 C 226.206 55.339 223.46 59.368 221.555 63.836 z M 371.42 320.274 c -5.789 0 -10.988 2.308 -14.725 6.08 c -3.735 3.772 -6.08 8.972 -6.08 14.723 c 0 5.75 2.345 10.949 6.08 14.686 c 3.772 3.771 8.973 6.116 14.725 6.116 c 5.713 0 10.948 -2.345 14.684 -6.116 c 3.771 -3.736 6.117 -8.936 6.117 -14.686 c 0 -5.751 -2.346 -10.95 -6.117 -14.723 l -0.107 -0.146 C 382.26 322.545 377.061 320.274 371.42 320.274 z M 418.773 416.961 c 0 1.685 -1.354 3.04 -3.041 3.04 c -7.176 0 -71.563 0 -87.382 0 c -1.688 0 -3.007 -1.355 -3.007 -3.04 v -15.528 c 0 -7.838 3.151 -14.942 8.314 -20.07 c 5.163 -5.163 12.234 -8.35 20.072 -8.35 h 36.658 c 7.766 0 14.797 3.148 19.959 8.276 l 0.076 0.073 c 5.164 5.164 8.35 12.27 8.35 20.07 V 416.961 z M 142.777 303.172 c 0 1.647 -1.354 3.003 -3.038 3.003 c -1.651 0 -3.006 -1.355 -3.006 -3.003 v -50.578 c 0 -1.685 1.355 -3.04 3.006 -3.04 l 233.144 2.638 c 1.685 0 3.004 1.354 3.004 3.003 v 49.001 c 0 1.685 -1.355 3.04 -3.004 3.04 c -1.684 0 -3.039 -1.355 -3.039 -3.04 V 258.16 l -227.067 -2.527 V 303.172 z M 252.427 438.423 c 0 -1.685 1.354 -3.04 3.042 -3.04 c 1.647 0 3.002 1.355 3.002 3.04 v 26.405 l 128.438 -0.623 v -21.498 c 0 -1.685 1.354 -3.04 3.038 -3.04 c 1.688 0 3.006 1.355 3.006 3.04 v 24.502 c 0 1.647 -1.318 3.003 -3.006 3.003 l -134.334 0.658 h -0.072 h -0.072 h -0.076 h -0.073 l -132.651 0.66 c -1.684 0 -3.003 -1.355 -3.003 -3.004 V 443.22 c 0 -1.647 1.319 -3.004 3.003 -3.004 c 1.684 0 3.039 1.356 3.039 3.004 v 22.267 l 126.718 -0.622 V 438.423 z M 251.22 320.274 c -5.749 0 -10.951 2.308 -14.724 6.08 l -0.145 0.146 c -3.664 3.735 -5.934 8.899 -5.934 14.577 c 0 5.75 2.342 10.949 6.078 14.686 c 3.736 3.771 8.975 6.116 14.724 6.116 c 5.749 0 10.913 -2.345 14.723 -6.116 c 3.736 -3.736 6.078 -8.936 6.078 -14.686 c 0 -5.751 -2.342 -10.95 -6.117 -14.723 C 262.133 322.582 256.969 320.274 251.22 320.274 z M 139.956 320.274 c -5.749 0 -10.984 2.308 -14.72 6.08 l -0.148 0.146 c -3.661 3.735 -5.933 8.899 -5.933 14.577 c 0 5.75 2.309 10.949 6.081 14.686 c 3.735 3.771 8.971 6.116 14.72 6.116 c 5.716 0 10.916 -2.345 14.688 -6.116 c 3.772 -3.736 6.08 -8.936 6.08 -14.686 c 0 -5.751 -2.308 -10.95 -6.08 -14.723 S 145.672 320.274 139.956 320.274 z M 297.953 416.961 c 0 1.685 -1.395 3.04 -3.006 3.04 c -7.252 0 -71.636 0 -87.458 0 c -1.647 0 -3.002 -1.355 -3.002 -3.04 v -15.528 c 0 -7.838 3.223 -14.942 8.35 -20.07 c 5.127 -5.163 12.234 -8.35 20.071 -8.35 h 36.624 c 7.764 0 14.868 3.148 19.995 8.276 l 0.075 0.073 c 5.128 5.164 8.351 12.27 8.351 20.07 V 416.961 z M 186.688 416.961 c 0 1.685 -1.391 3.04 -3.039 3.04 c -7.215 0 -71.599 0 -87.421 0 c -1.684 0 -3.002 -1.355 -3.002 -3.04 v -15.528 c 0 -7.838 3.147 -14.942 8.314 -20.07 c 5.163 -5.163 12.267 -8.35 20.104 -8.35 h 36.624 c 7.765 0 14.835 3.148 19.963 8.276 l 0.072 0.073 c 5.163 5.164 8.386 12.27 8.386 20.07 V 416.961 z M 256.933 176.673 h 7.765 h 0.072 h 16.336 l -1.099 -20.62 l -22.634 20.291 C 257.226 176.453 257.08 176.563 256.933 176.673 z" stroke-linecap="round" />
</g>
</svg>