<svg width="350" height="350" viewBox="0 0 350 350" fill="none" xmlns="http://www.w3.org/2000/svg">
<circle cx="175" cy="175" r="175" fill="#FFAB26"/>
<path d="M222.978 120.618C219.916 121.047 216.692 122.552 214.114 124.701C213.147 125.506 200.629 140.441 186.339 157.794L160.283 189.437L149.969 179.283C140.782 170.204 139.385 169.022 136.484 167.947C120.314 161.877 105.701 177.886 113.384 193.197C114.512 195.453 118.81 200.074 132.401 213.612C142.448 223.658 150.936 231.716 152.333 232.522C155.932 234.564 160.66 235.369 164.689 234.617C171.834 233.328 170.598 234.564 206.216 191.424C223.999 169.774 239.363 151.025 240.33 149.682C243.231 145.706 243.822 143.88 243.876 138.883C243.93 134.908 243.715 133.887 242.372 130.932C238.987 123.626 231.144 119.436 222.978 120.618ZM229.317 130.503C233.185 132.114 235.603 137.003 234.528 141.032C234.099 142.698 226.792 151.884 203.799 179.874C187.199 200.02 172.264 218.124 170.652 220.166C166.462 225.27 162.594 226.935 158.403 225.377C157.597 225.055 148.894 216.781 139.063 207.004C123.537 191.478 121.173 188.899 120.636 186.858C118.595 179.605 126.492 172.944 133.154 176.274C134.121 176.758 140.191 182.453 146.745 188.899C157.812 199.912 158.726 200.665 160.552 200.665C162.056 200.665 162.862 200.288 164.152 198.892C165.065 197.978 177.958 182.453 192.786 164.455C211.374 141.892 220.346 131.416 221.635 130.718C223.837 129.589 226.9 129.482 229.317 130.503Z" fill="white"/>
<path d="M166.3 38.2607C152.816 39.5501 146.638 40.6783 136.699 43.5793C121.012 48.1457 104.358 56.5802 91.9482 66.3577L88.51 69.0439L88.2951 61.7376C88.1339 54.485 88.1339 54.4313 86.6297 53.1419C84.6419 51.4765 82.2781 51.4765 80.6127 53.1957L79.2696 54.485V67.862V81.2389L80.6664 82.5283C81.9558 83.7639 82.4393 83.8176 90.2291 84.0325L98.4487 84.1937L91.3573 91.2851C77.8191 104.823 68.4177 119.973 62.347 138.024C57.7806 151.723 55.7928 165.53 56.33 179.713C57.0822 197.28 60.5204 211.355 67.9342 226.774C85.394 262.875 118.272 287.104 158.511 293.444C167.59 294.841 184.835 294.733 193.86 293.121C209.655 290.328 221.313 286.245 233.991 278.992C254.782 267.066 270.845 250.143 281.697 228.762C298.673 195.239 298.888 157.257 282.342 123.572C272.51 103.588 258.65 87.7931 240.438 75.9204C220.614 62.9732 198.91 56.5802 174.896 56.5265C153.031 56.5265 132.616 62.1674 114.243 73.288C110.536 75.5443 109.569 75.9204 108.925 75.3832C108.441 74.9534 105.862 74.631 102.263 74.4699L96.4072 74.3087L99.7917 71.8375C128.265 51.1005 164.044 43.0421 198.749 49.4351C249.678 58.8366 289.487 97.6244 300.822 148.822C304.422 165.315 304.26 186.482 300.339 203.888C291.85 241.655 266.44 273.727 231.574 290.65C219.164 296.721 207.183 300.428 193.43 302.523C184.566 303.866 166.354 303.866 157.705 302.577C141.105 299.998 126.599 295.163 113.384 287.857C70.9426 264.272 45.5318 219.575 47.1972 171.386C47.7344 156.827 49.7759 145.814 54.396 132.974C57.3508 124.754 57.7268 122.605 56.3838 121.047C54.8795 119.436 53.2141 118.952 51.2801 119.651C49.937 120.134 49.2924 120.886 48.1105 123.519C43.8664 132.92 39.5686 150.434 38.3867 163.274C37.6345 171.654 38.0106 187.234 39.2462 195.292C46.9823 246.759 82.5467 289.307 131.542 305.692C157.275 314.288 183.384 315.201 210.138 308.379C233.615 302.362 254.567 290.274 272.403 272.438C283.9 260.941 291.797 249.928 298.458 236.39C308.236 216.459 312.426 198.086 312.426 175.415C312.426 152.69 308.021 133.619 298.243 114.117C276.916 71.73 236.355 43.6867 188.971 38.6905C182.364 37.9921 171.243 37.7772 166.3 38.2607ZM170.706 80.3794L170.867 94.9382L172.371 96.2276C174.305 97.893 176.508 97.893 178.334 96.1739L179.731 94.8845V80.2719V65.6593L184.996 66.0354C192.249 66.5726 202.241 68.6678 209.977 71.2465C216.854 73.5566 225.933 77.4783 225.933 78.2305C225.933 78.4453 223.891 82.1522 221.366 86.5038C218.035 92.2521 216.8 94.8308 216.8 96.2276C216.8 99.8807 220.99 102.083 223.73 99.7733C224.321 99.2898 226.846 95.368 229.371 91.0702C232.326 85.9665 234.152 83.2804 234.743 83.3341C237.161 83.549 250.591 94.7771 257.092 102.083C260.423 105.844 267.299 114.977 267.729 116.266C267.836 116.535 264.237 118.845 259.832 121.37C255.373 123.949 251.397 126.581 250.914 127.226C249.732 128.945 249.893 131.201 251.451 132.705C253.654 134.962 255.373 134.532 264.13 129.482C268.481 126.957 272.242 124.916 272.51 124.916C273.101 124.916 276.647 132.598 278.796 138.4C281.697 146.405 284.061 157.364 284.759 166.389L285.135 171.117H270.576H255.964L254.674 172.46C252.848 174.233 252.848 176.919 254.728 178.692L256.125 179.981L270.63 180.142L285.135 180.304L284.759 184.978C283.738 197.495 279.602 212.752 274.337 223.121L272.671 226.398L264.774 221.831C255.534 216.459 253.546 215.922 251.505 218.124C249.839 219.897 249.732 222.046 251.129 223.873C251.72 224.625 255.695 227.204 259.993 229.675C264.291 232.146 267.836 234.349 267.836 234.564C267.836 235.262 261.551 243.75 257.468 248.478C252.794 253.85 244.198 261.479 238.128 265.562L234.152 268.248L229.371 259.921C225.933 253.958 224.16 251.379 223.032 250.788C220.131 249.284 216.8 251.325 216.8 254.656C216.8 256.106 217.982 258.685 221.42 264.648C223.999 269.054 225.986 272.76 225.879 272.868C225.181 273.513 218.035 276.79 213.953 278.348C204.981 281.786 191.604 284.687 182.955 285.117L180 285.224L179.731 270.612C179.516 257.879 179.355 255.892 178.549 254.978C177.26 253.474 175.272 253.098 173.499 253.958C170.759 255.247 170.598 256.16 170.598 271.31V285.332L165.656 284.902C155.341 283.989 146.154 281.893 136.216 278.186C132.133 276.629 125.256 273.566 124.504 272.922C124.45 272.868 126.438 269.215 129.017 264.81C134.335 255.623 134.765 254.172 132.885 251.97C131.81 250.734 131.166 250.466 129.447 250.519C126.761 250.627 126.223 251.271 120.905 260.512C118.595 264.541 116.446 267.818 116.123 267.818C115.801 267.818 113.222 266.153 110.429 264.165C103.66 259.384 92.2705 248.048 86.8446 240.688C84.4808 237.411 82.493 234.671 82.493 234.51C82.5467 234.349 86.2536 232.146 90.7663 229.514C95.3327 226.935 99.3082 224.464 99.6843 224.034C100.06 223.604 100.329 222.369 100.329 221.24C100.329 218.877 98.3412 216.781 96.0311 216.781C95.2253 216.781 90.9812 218.877 86.2536 221.616L77.9266 226.398L76.3686 223.336C70.9963 212.86 66.806 197.334 65.6241 183.312L65.3555 180.25H79.0548C94.4195 180.25 95.87 179.981 96.8907 177.08C97.5891 175.146 97.1056 173.481 95.5476 172.084C94.6343 171.225 92.9152 171.117 80.0218 171.01L65.5704 170.848L65.7315 167.356C66.0001 162.36 67.2358 154.517 68.8474 148.285C71.0501 139.474 76.8521 124.916 78.1415 124.916C78.3564 124.916 82.117 126.957 86.4685 129.482C95.1716 134.532 96.9981 134.962 99.0933 132.759C100.383 131.362 100.705 128.998 99.7917 127.333C99.5231 126.742 95.4939 124.11 90.8738 121.477L82.5467 116.642L83.46 115.084C85.8775 110.948 91.9482 103.641 97.5354 98.0004C103.069 92.3595 114.673 83.0118 116.07 83.0118C116.392 83.0118 118.756 86.7186 121.388 91.2851C126.116 99.5047 127.244 100.74 129.823 100.74C131.327 100.74 134.067 97.893 134.067 96.2813C134.067 95.5829 131.864 91.1776 129.178 86.5575C126.546 81.8836 124.397 78.0156 124.504 77.9081C125.041 77.5321 134.926 73.1805 137.935 72.0523C146.262 68.9901 159.961 66.1428 167.751 65.8742L170.545 65.8205L170.706 80.3794Z" fill="white"/>
</svg>
