<svg width="473" height="548" viewBox="0 0 473 548" fill="none" xmlns="http://www.w3.org/2000/svg">
<g clip-path="url(#clip0_1_3)">
<path d="M473 486.444H346.044V484.804C379.279 484.804 411.153 471.634 434.653 448.19C458.154 424.747 471.356 392.95 471.356 359.796V271.409H473V486.444Z" fill="#F2F2F2"/>
<path d="M126.596 166.984C123.221 168.267 119.774 169.354 116.274 170.241C111.65 171.365 109.039 171.886 104.576 170.158C104.42 170.097 104.27 170.037 104.129 169.978C95.6696 166.39 88.4383 160.427 83.3154 152.813C78.1924 145.199 75.3986 136.264 75.2742 127.095C75.2518 126.78 75.2519 126.45 75.2519 126.127C75.2475 124.573 75.322 123.02 75.475 121.473C75.6705 119.367 76.0083 117.276 76.4861 115.215L76.4414 115.207C72.8281 111.521 71.4378 106.472 71.8988 101.399C72.2146 97.9593 73.3088 94.6363 75.0989 91.6801C76.889 88.7239 79.3284 86.2115 82.2332 84.3323C86.7856 81.4771 91.9186 79.6697 97.259 79.0415C98.693 78.8765 100.135 78.793 101.579 78.7914H115.14C117.941 78.1373 120.786 77.6898 123.653 77.4526H123.675C150.968 75.1943 172.492 93.2445 170.485 115.207C170.47 115.231 170.448 115.255 170.433 115.279C169.853 116.223 169.34 117.118 168.886 117.973C168.448 118.771 168.076 119.538 167.756 120.263C165.266 125.877 177.102 212.97 172.856 214.293C170.44 215.043 160.701 150.234 162.448 162.558C164.648 178.019 139.17 162.348 126.596 166.984Z" fill="#2F2E41"/>
<path d="M167.712 324.424L205.545 404.83L60.007 390.125L90.3875 312.937L167.712 324.424Z" fill="#FFB6B6"/>
<path d="M243.66 485.634C218.352 494.038 191.681 497.602 165.048 496.138L153.467 477.402C153.467 477.402 152.982 484.38 152.258 495.048C139.58 493.582 127.068 490.935 114.884 487.143C91.7787 479.936 70.1202 468.768 48.1656 458.469C43.7189 432.025 42.0503 391.248 66.635 367.51L198.962 391.699C198.962 391.699 220.193 407.541 214.514 413.215C208.834 418.881 207.954 418.003 211.686 421.726C215.418 425.449 223.481 430.426 223.563 433.681C223.596 434.952 232.646 458.001 243.66 485.634Z" fill="#2F2E41"/>
<path d="M144.604 169.05L112.634 171.275L91.971 191.194L84.7343 192.482C78.2293 193.639 72.3762 197.137 68.2846 202.313C64.1931 207.489 62.1477 213.983 62.5364 220.563C64.0249 245.721 67.3578 283.313 74.3239 295.509C85.1254 314.42 94.0472 308.487 85.1254 314.42C76.2035 320.354 70.2137 315.691 74.3239 325.068C78.434 334.446 68.7687 346.473 68.7687 346.473L64.9211 350.312L69.002 351.98L199.033 368.859C199.033 368.859 187.789 318.429 194.821 306.041C201.852 293.653 218.901 256.206 203.685 241.554L188.808 189.327L163.217 181.797L144.604 169.05Z" fill="#22CCBB"/>
<path d="M338.132 376.028C335.993 375.96 333.894 375.43 331.98 374.473C330.066 373.517 328.383 372.157 327.048 370.488C325.713 368.818 324.757 366.88 324.247 364.806C323.737 362.732 323.684 360.573 324.093 358.476L263.098 317.268L270.376 297.636L342.462 347.108C345.947 348.056 348.963 350.248 350.937 353.266C352.912 356.285 353.707 359.921 353.174 363.486C352.64 367.051 350.814 370.297 348.042 372.608C345.27 374.92 341.744 376.137 338.132 376.028Z" fill="#FFB6B6"/>
<path d="M165.852 186.86L156.989 190.361L204.27 282.479L302.148 349.035L316.257 325.246L241.751 261.048L211.922 203.979C207.724 195.948 200.692 189.753 192.184 186.591C183.675 183.43 174.294 183.526 165.852 186.86Z" fill="#22CCBB"/>
<path d="M126.956 160.949C144.685 160.949 159.058 146.611 159.058 128.924C159.058 111.237 144.685 96.8996 126.956 96.8996C109.226 96.8996 94.8534 111.237 94.8534 128.924C94.8534 146.611 109.226 160.949 126.956 160.949Z" fill="#FFB6B6"/>
<path d="M154.872 115.382C154.336 115.664 153.808 115.923 153.273 116.183C152.715 116.45 152.158 116.717 151.593 116.969C140.85 121.827 132.099 122.368 126.79 115.382C126.645 111.706 125.815 108.089 124.344 104.716C124.604 108.486 123.608 112.235 121.511 115.382H110.82C99.8092 122.672 94.1587 129.37 101.802 153.304C102.3 154.876 105.712 210.74 106.686 215.034C90.0175 208.656 75.6385 140.933 75.2742 123.088C75.2519 122.799 75.2519 122.494 75.2519 122.198C75.2475 120.768 75.322 119.34 75.475 117.918C75.6711 115.978 76.0091 114.054 76.4861 112.163L76.4415 112.155C74.7455 110.538 73.4517 108.548 72.663 106.343C71.8743 104.139 71.6126 101.781 71.8988 99.4578C74.6951 95.8053 78.1555 92.7105 82.0994 90.3351C85.6856 88.6027 89.4236 87.2024 93.2665 86.152C93.3632 86.1297 93.4449 86.1075 93.5416 86.0852C94.7163 85.7663 95.9208 85.477 97.1252 85.2248C99.6073 84.7056 102.117 84.3267 104.642 84.0901C104.828 84.0827 105.006 84.0678 105.17 84.0678C106.18 84.0685 107.171 84.34 108.04 84.854C108.047 84.854 108.047 84.8614 108.062 84.8614C108.896 85.3589 109.589 86.0624 110.072 86.9042C110.555 87.7459 110.813 88.6976 110.82 89.6675H122.731C123.169 89.6675 123.608 89.6824 124.047 89.7046C140.634 90.3647 153.965 97.4404 154.82 113.706C154.857 114.269 154.872 114.818 154.872 115.382Z" fill="#2F2E41"/>
<path d="M84.4539 116.669C96.1342 116.669 105.603 107.223 105.603 95.5713C105.603 83.9192 96.1342 74.4733 84.4539 74.4733C72.7735 74.4733 63.3047 83.9192 63.3047 95.5713C63.3047 107.223 72.7735 116.669 84.4539 116.669Z" fill="#2F2E41"/>
<path d="M113.489 85.8128C111.087 97.2157 99.2324 104.036 87.8918 101.246C82.4458 99.9061 77.7564 96.4632 74.8551 91.6743C71.9538 86.8854 71.0784 81.143 72.4213 75.7102C75.2178 64.397 88.9811 67.6585 98.0189 60.2772C110.804 49.8353 116.73 70.4351 113.489 85.8128Z" fill="#2F2E41"/>
<path d="M66.4991 403.225C84.5241 329.897 120.239 266.871 179.387 217.49C181.677 213.733 185.366 211.036 189.646 209.99C193.927 208.943 198.448 209.633 202.219 211.908L342.83 296.957C346.596 299.241 349.3 302.921 350.349 307.191C351.398 311.461 350.706 315.972 348.426 319.734C325.85 394.976 292.036 460.266 235.538 505.468C233.248 509.225 229.559 511.922 225.279 512.969C220.999 514.015 216.477 513.325 212.706 511.05L72.0949 426.001C68.3291 423.717 65.625 420.037 64.576 415.767C63.5269 411.497 64.2185 406.986 66.4991 403.225Z" fill="#F2F2F2"/>
<path opacity="0.2" d="M91.4914 427.937C87.7256 425.653 85.0216 421.973 83.9726 417.703C82.9236 413.433 83.6153 408.922 85.8958 405.161C103.921 331.833 139.636 268.806 198.784 219.426C200.299 216.967 202.439 214.951 204.986 213.582L202.219 211.908C198.448 209.633 193.927 208.943 189.646 209.989C185.366 211.036 181.677 213.733 179.387 217.49C120.239 266.87 84.5243 329.896 66.4993 403.224C64.2187 406.986 63.527 411.497 64.5761 415.767C65.6251 420.037 68.3291 423.717 72.0949 426.001L212.706 511.05C215.208 512.552 218.065 513.368 220.985 513.414C223.906 513.46 226.786 512.735 229.335 511.313L91.4914 427.937Z" fill="black"/>
<path d="M256.392 386.969L162.008 330.236C160.508 329.332 159.429 327.871 159.009 326.175C158.588 324.478 158.86 322.684 159.764 321.187C160.668 319.69 162.131 318.612 163.831 318.19C165.531 317.769 167.33 318.037 168.832 318.937L263.217 375.67C264.712 376.576 265.787 378.036 266.206 379.731C266.624 381.426 266.352 383.217 265.449 384.712C264.546 386.207 263.086 387.284 261.388 387.707C259.69 388.13 257.894 387.865 256.392 386.969Z" fill="white"/>
<path d="M201.485 311.736L180.721 299.255C179.216 298.356 178.13 296.899 177.703 295.202C177.275 293.506 177.541 291.709 178.441 290.208C179.341 288.707 180.802 287.624 182.503 287.198C184.204 286.771 186.005 287.036 187.509 287.934L187.545 287.956L208.31 300.437C209.806 301.343 210.881 302.803 211.3 304.498C211.719 306.193 211.447 307.985 210.544 309.48C209.64 310.976 208.18 312.053 206.482 312.475C204.784 312.898 202.987 312.632 201.485 311.736Z" fill="white"/>
<path d="M241.391 411.805L147.007 355.072C145.505 354.17 144.424 352.711 144.001 351.014C143.578 349.318 143.848 347.523 144.75 346.025C145.653 344.526 147.115 343.447 148.815 343.023C150.515 342.599 152.315 342.866 153.817 343.765L153.831 343.773L248.216 400.506C249.711 401.412 250.786 402.872 251.205 404.567C251.623 406.262 251.351 408.053 250.448 409.548C249.545 411.043 248.085 412.121 246.387 412.543C244.689 412.966 242.893 412.701 241.391 411.805Z" fill="white"/>
<path d="M268.378 279.998C283.604 279.998 295.946 267.685 295.946 252.497C295.946 237.308 283.604 224.996 268.378 224.996C253.153 224.996 240.811 237.308 240.811 252.497C240.811 267.685 253.153 279.998 268.378 279.998Z" fill="#3F3D56"/>
<path d="M220.859 547.18C253.4 547.18 279.781 520.863 279.781 488.4C279.781 455.937 253.4 429.621 220.859 429.621C188.317 429.621 161.937 455.937 161.937 488.4C161.937 520.863 188.317 547.18 220.859 547.18Z" fill="white"/>
<path d="M220.859 548C209.042 548 197.491 544.505 187.667 537.956C177.842 531.407 170.184 522.099 165.662 511.208C161.14 500.318 159.957 488.335 162.262 476.773C164.568 465.212 170.258 454.593 178.613 446.258C186.968 437.922 197.614 432.246 209.203 429.946C220.792 427.647 232.805 428.827 243.721 433.338C254.638 437.849 263.969 445.488 270.534 455.289C277.099 465.09 280.603 476.613 280.603 488.4C280.585 504.201 274.285 519.351 263.084 530.524C251.884 541.697 236.698 547.982 220.859 548ZM220.859 430.441C209.368 430.441 198.134 433.84 188.58 440.209C179.025 446.578 171.578 455.63 167.181 466.221C162.784 476.811 161.633 488.465 163.875 499.708C166.117 510.951 171.65 521.278 179.776 529.384C187.901 537.49 198.254 543.01 209.524 545.246C220.794 547.483 232.476 546.335 243.093 541.948C253.709 537.561 262.783 530.132 269.167 520.601C275.551 511.069 278.959 499.863 278.959 488.4C278.941 473.034 272.814 458.302 261.922 447.436C251.03 436.57 236.262 430.458 220.859 430.441Z" fill="#3F3D56"/>
<path d="M212.82 518.992C211.803 518.992 210.799 518.756 209.889 518.302C208.979 517.848 208.188 517.189 207.578 516.376L191.503 494.995C190.985 494.308 190.609 493.526 190.395 492.694C190.18 491.862 190.133 490.996 190.254 490.145C190.376 489.295 190.664 488.477 191.102 487.737C191.541 486.998 192.121 486.352 192.81 485.837C193.499 485.321 194.283 484.946 195.118 484.733C195.952 484.52 196.82 484.474 197.673 484.595C198.525 484.717 199.345 485.006 200.086 485.444C200.827 485.882 201.473 486.462 201.99 487.149L212.506 501.137L239.517 460.719C239.995 460.004 240.608 459.391 241.324 458.913C242.039 458.435 242.841 458.103 243.685 457.934C244.529 457.766 245.398 457.765 246.243 457.932C247.087 458.098 247.89 458.429 248.606 458.905C249.323 459.382 249.938 459.994 250.417 460.708C250.896 461.421 251.229 462.222 251.398 463.064C251.567 463.906 251.568 464.772 251.4 465.615C251.233 466.457 250.902 467.258 250.424 467.973L218.275 516.081C217.693 516.951 216.911 517.669 215.994 518.175C215.076 518.681 214.051 518.961 213.003 518.99C212.942 518.991 212.881 518.992 212.82 518.992Z" fill="#22CCBB"/>
<path d="M411.149 190.533C413.49 190.333 415.275 188.854 415.136 187.229C414.997 185.604 412.986 184.449 410.644 184.649C408.303 184.848 406.518 186.328 406.657 187.952C406.796 189.577 408.807 190.733 411.149 190.533Z" fill="white"/>
<path d="M437.493 181.618C439.834 181.418 441.619 179.939 441.48 178.314C441.341 176.689 439.33 175.534 436.988 175.734C434.647 175.933 432.862 177.412 433.001 179.037C433.14 180.662 435.151 181.818 437.493 181.618Z" fill="#3F3D56"/>
<path d="M398.661 170.483C401.002 170.283 402.787 168.804 402.648 167.179C402.509 165.554 400.498 164.399 398.157 164.599C395.815 164.798 394.03 166.277 394.169 167.902C394.309 169.527 396.32 170.682 398.661 170.483Z" fill="#FF6584"/>
<path d="M387.61 164.022C388.618 163.795 389.17 162.439 388.842 160.994C388.515 159.549 387.433 158.561 386.425 158.789C385.417 159.016 384.866 160.371 385.193 161.817C385.52 163.262 386.603 164.249 387.61 164.022Z" fill="#E6E6E6"/>
<path d="M379.743 148.337C380.75 148.11 381.302 146.754 380.975 145.309C380.647 143.864 379.565 142.877 378.557 143.104C377.55 143.331 376.998 144.687 377.325 146.132C377.653 147.577 378.735 148.564 379.743 148.337Z" fill="#3F3D56"/>
<path d="M417.49 170.364C418.498 170.137 419.05 168.781 418.722 167.336C418.395 165.891 417.313 164.903 416.305 165.131C415.297 165.358 414.746 166.713 415.073 168.159C415.4 169.604 416.483 170.591 417.49 170.364Z" fill="#E6E6E6"/>
<path d="M405.984 179.893C406.992 179.666 407.543 178.31 407.216 176.865C406.889 175.42 405.806 174.433 404.799 174.66C403.791 174.887 403.239 176.242 403.566 177.688C403.894 179.133 404.976 180.12 405.984 179.893Z" fill="#FF6584"/>
<path d="M426.931 187.654C427.939 187.427 428.491 186.072 428.164 184.626C427.836 183.181 426.754 182.194 425.746 182.421C424.738 182.648 424.187 184.004 424.514 185.449C424.841 186.894 425.924 187.882 426.931 187.654Z" fill="#3F3D56"/>
<path d="M302.382 69.0356C302.784 67.4548 301.263 65.7064 298.985 65.1305C296.707 64.5546 294.535 65.3693 294.133 66.9501C293.732 68.531 295.253 70.2793 297.531 70.8552C299.808 71.4311 301.981 70.6164 302.382 69.0356Z" fill="white"/>
<path d="M274.564 68.8567C274.966 67.2758 273.445 65.5275 271.167 64.9516C268.889 64.3757 266.717 65.1904 266.315 66.7712C265.914 68.352 267.435 70.1004 269.713 70.6763C271.99 71.2522 274.163 70.4375 274.564 68.8567Z" fill="#3F3D56"/>
<path d="M307.603 92.059C308.004 90.4782 306.483 88.7298 304.205 88.1539C301.927 87.5781 299.755 88.3927 299.353 89.9735C298.952 91.5544 300.473 93.3027 302.751 93.8786C305.029 94.4545 307.201 93.6398 307.603 92.059Z" fill="#FF6584"/>
<path d="M314.087 100.741C314.252 99.2682 313.553 97.9818 312.527 97.8673C311.5 97.7529 310.534 98.8537 310.369 100.326C310.204 101.799 310.903 103.085 311.929 103.199C312.956 103.314 313.922 102.213 314.087 100.741Z" fill="#E6E6E6"/>
<path d="M316.375 118.13C316.54 116.658 315.841 115.372 314.814 115.257C313.787 115.143 312.821 116.243 312.656 117.716C312.491 119.188 313.19 120.475 314.217 120.589C315.244 120.704 316.21 119.603 316.375 118.13Z" fill="#3F3D56"/>
<path d="M287.935 84.9905C288.1 83.5181 287.401 82.2317 286.374 82.1173C285.347 82.0028 284.381 83.1037 284.216 84.5761C284.051 86.0485 284.75 87.3349 285.777 87.4493C286.804 87.5638 287.77 86.4629 287.935 84.9905Z" fill="#E6E6E6"/>
<path d="M301.934 79.744C302.099 78.2716 301.4 76.9852 300.373 76.8708C299.347 76.7563 298.381 77.8571 298.216 79.3296C298.051 80.802 298.749 82.0884 299.776 82.2028C300.803 82.3173 301.769 81.2164 301.934 79.744Z" fill="#FF6584"/>
<path d="M284.687 65.5696C284.852 64.0972 284.154 62.8108 283.127 62.6964C282.1 62.5819 281.134 63.6828 280.969 65.1552C280.804 66.6276 281.503 67.914 282.53 68.0284C283.556 68.1429 284.523 67.042 284.687 65.5696Z" fill="#3F3D56"/>
<path d="M1.64392 215.034H0V0H126.956V1.63994C93.7209 1.63994 61.8473 14.8104 38.3468 38.254C14.8463 61.6976 1.64392 93.4939 1.64392 126.648V215.034Z" fill="#F2F2F2"/>
<path d="M75.2667 404.001C73.1657 403.142 71.2768 401.839 69.7306 400.18C68.1844 398.521 67.0179 396.547 66.3116 394.395C65.6054 392.242 65.3763 389.962 65.6402 387.713C65.9041 385.463 66.6547 383.297 67.8401 381.365L22.5458 317.85L37.0765 301.033L90.3203 376.863C93.4315 379.096 95.6137 382.389 96.4535 386.119C97.2933 389.849 96.7322 393.757 94.8767 397.102C93.0211 400.448 90 402.997 86.3857 404.269C82.7715 405.54 78.8152 405.445 75.2667 404.001Z" fill="#FFB6B6"/>
<path d="M76.3074 202.722C74.0159 201.377 71.3189 200.891 68.7005 201.351C66.082 201.811 63.7136 203.187 62.0204 205.232L0.821854 290.614L57.537 370.971L79.7298 347.192L45.2076 293.074L91.0879 249.496C94.8582 241.257 95.4341 231.915 92.7043 223.277C89.9746 214.639 84.1329 207.316 76.3074 202.722Z" fill="#22CCBB"/>
</g>
<defs>
<clipPath id="clip0_1_3">
<rect width="473" height="548" fill="white"/>
</clipPath>
</defs>
</svg>
